# xmcd CD database file
#
# Track frame offsets:
#	150
#	18585
#	42417
#	64300
#	89886
#	122965
#	149079
#	172724
#	199302
#	234071
#	255965
#	277202
#	299766
#	323153
#
# Disc length: 4654 seconds
#
# Revision: 0
# Processed by: cddbd v1.5.2PL0 Copyright (c) Steve Scherf et al.
# Submitted via: CDex 2.13
#
DISCID=df122c0e
DTITLE=Lenny "Fuzzy" Rankins - Fuzzy - The Blues
DYEAR=2017
DGENRE=Blues
TTITLE0=Happy Man
TTITLE1=Medication
TTITLE2=Thinking For Yourself
TTITLE3=The Thrill Is Gone
TTITLE4=Shut Your Mouth
TTITLE5=Slippin' Through Your Town
TTITLE6=Blues Letter On My Bed
TTITLE7=Killing Floor
TTITLE8=Baja Groove
TTITLE9=It's Your Birthday
TTITLE10=We Were Through
TTITLE11=Born Under a Bad Sign
TTITLE12=Woman's Gotta Have It
TTITLE13=Sweet Sixteen
EXTD=YEAR: 2017
EXTT0=
EXTT1=
EXTT2=
EXTT3=
EXTT4=
EXTT5=
EXTT6=
EXTT7=
EXTT8=
EXTT9=
EXTT10=
EXTT11=
EXTT12=
EXTT13=
PLAYORDER=
